{
  "accessors": [
    {
      "bufferView": 1,
      "componentType": 5126,
      "count": 65532,
      "max": [
        5.484832286834717,
        6.384293079376221,
        13.475820541381836
      ],
      "min": [
        -5.727657794952393,
        -5.76300573348999,
        -2.97419810295105
      ],
      "type": "VEC3"
    },
    {
      "bufferView": 1,
      "byteOffset": 786384,
      "componentType": 5126,
      "count": 65532,
      "max": [
        0.99991375207901,
        0.9999814033508301,
        0.9999698400497437
      ],
      "min": [
        -0.9998145699501038,
        -0.9999842047691345,
        -0.9999964833259583
      ],
      "type": "VEC3"
    },
    {
      "bufferView": 2,
      "componentType": 5126,
      "count": 65532,
      "max": [
        1.0,
        0.800000011920929,
        0.9725490212440491,
        1.0
      ],
      "min": [
        0.2862745225429535,
        0.1411764770746231,
        0.13333334028720856,
        1.0
      ],
      "type": "VEC4"
    },
    {
      "bufferView": 0,
      "componentType": 5125,
      "count": 348981,
      "type": "SCALAR"
    },
    {
      "bufferView": 1,
      "byteOffset": 1572768,
      "componentType": 5126,
      "count": 65532,
      "max": [
        5.6135640144348145,
        5.3125529289245605,
        13.827390670776367
      ],
      "min": [
        -5.3898797035217285,
        -5.183953762054443,
        -2.769855499267578
      ],
      "type": "VEC3"
    },
    {
      "bufferView": 1,
      "byteOffset": 2359152,
      "componentType": 5126,
      "count": 65532,
      "max": [
        0.9998651146888733,
        0.9999948143959045,
        0.9999452829360962
      ],
      "min": [
        -0.9999352693557739,
        -0.9999735355377197,
        -0.9999963641166687
      ],
      "type": "VEC3"
    },
    {
      "bufferView": 2,
      "byteOffset": 1048512,
      "componentType": 5126,
      "count": 65532,
      "max": [
        1.0,
        0.800000011920929,
        0.9725490212440491,
        1.0
      ],
      "min": [
        0.2862745225429535,
        0.12156862765550613,
        0.15294118225574493,
        1.0
      ],
      "type": "VEC4"
    },
    {
      "bufferView": 0,
      "byteOffset": 1395924,
      "componentType": 5125,
      "count": 334992,
      "type": "SCALAR"
    },
    {
      "bufferView": 1,
      "byteOffset": 3145536,
      "componentType": 5126,
      "count": 38906,
      "max": [
        6.545072078704834,
        5.3659844398498535,
        13.777956008911133
      ],
      "min": [
        -5.956338405609131,
        -7.093011856079102,
        -2.907953977584839
      ],
      "type": "VEC3"
    },
    {
      "bufferView": 1,
      "byteOffset": 3612408,
      "componentType": 5126,
      "count": 38906,
      "max": [
        0.9999843835830688,
        0.9997144937515259,
        0.9999923706054688
      ],
      "min": [
        -0.9999352693557739,
        -0.9999181628227234,
        -0.999987006187439
      ],
      "type": "VEC3"
    },
    {
      "bufferView": 2,
      "byteOffset": 2097024,
      "componentType": 5126,
      "count": 38906,
      "max": [
        1.0,
        0.800000011920929,
        0.9725490212440491,
        1.0
      ],
      "min": [
        0.2862745225429535,
        0.125490203499794,
        0.1725490242242813,
        1.0
      ],
      "type": "VEC4"
    },
    {
      "bufferView": 0,
      "byteOffset": 2735892,
      "componentType": 5125,
      "count": 157047,
      "type": "SCALAR"
    }
  ],
  "asset": {
    "extras": {
      "author": "Duznot (https://sketchfab.com/duz_vr)",
      "license": "CC-BY-4.0 (http://creativecommons.org/licenses/by/4.0/)",
      "source": "https://sketchfab.com/3d-models/alien-plant-4e6081218b56460caa8eee52325f4470",
      "title": "Alien Plant"
    },
    "generator": "Sketchfab-14.81.0",
    "version": "2.0"
  },
  "bufferViews": [
    {
      "buffer": 0,
      "byteLength": 3364080,
      "name": "floatBufferViews",
      "target": 34963
    },
    {
      "buffer": 0,
      "byteLength": 4079280,
      "byteOffset": 3364080,
      "byteStride": 12,
      "name": "floatBufferViews",
      "target": 34962
    },
    {
      "buffer": 0,
      "byteLength": 2719520,
      "byteOffset": 7443360,
      "byteStride": 16,
      "name": "floatBufferViews",
      "target": 34962
    }
  ],
  "buffers": [
    {
      "byteLength": 10162880,
      "uri": "scene.bin"
    }
  ],
  "extensionsUsed": [
    "KHR_materials_clearcoat"
  ],
  "materials": [
    {
      "doubleSided": true,
      "extensions": {
        "KHR_materials_clearcoat": {
          "clearcoatFactor": 0.42659161172922294,
          "clearcoatRoughnessFactor": 0.02361208183003079
        }
      },
      "name": "Scene_-_Root",
      "pbrMetallicRoughness": {
        "metallicFactor": 0.07398452306742981,
        "roughnessFactor": 0.14954318492352833
      }
    }
  ],
  "meshes": [
    {
      "name": "Flower__0",
      "primitives": [
        {
          "attributes": {
            "COLOR_0": 2,
            "NORMAL": 1,
            "POSITION": 0
          },
          "indices": 3,
          "material": 0,
          "mode": 4
        }
      ]
    },
    {
      "name": "Flower__0",
      "primitives": [
        {
          "attributes": {
            "COLOR_0": 6,
            "NORMAL": 5,
            "POSITION": 4
          },
          "indices": 7,
          "material": 0,
          "mode": 4
        }
      ]
    },
    {
      "name": "Flower__0",
      "primitives": [
        {
          "attributes": {
            "COLOR_0": 10,
            "NORMAL": 9,
            "POSITION": 8
          },
          "indices": 11,
          "material": 0,
          "mode": 4
        }
      ]
    }
  ],
  "nodes": [
    {
      "children": [
        1
      ],
      "matrix": [
        1.0,
        0.0,
        0.0,
        0.0,
        0.0,
        2.220446049250313e-16,
        -1.0,
        0.0,
        0.0,
        1.0,
        2.220446049250313e-16,
        0.0,
        0.0,
        0.0,
        0.0,
        1.0
      ],
      "name": "Sketchfab_model"
    },
    {
      "children": [
        2
      ],
      "matrix": [
        0.009999999776482582,
        0.0,
        0.0,
        0.0,
        0.0,
        0.0,
        0.009999999776482582,
        0.0,
        0.0,
        -0.009999999776482582,
        0.0,
        0.0,
        0.0,
        0.0,
        0.0,
        1.0
      ],
      "name": "e5d824052ec74ba3bf6ea80a3092eba3.fbx"
    },
    {
      "children": [
        3
      ],
      "name": "RootNode"
    },
    {
      "children": [
        4,
        5,
        6
      ],
      "matrix": [
        100.0,
        0.0,
        0.0,
        0.0,
        0.0,
        -1.629206793918314e-05,
        -99.99999999999868,
        0.0,
        0.0,
        78.36425781249896,
        -1.2767158122849133e-05,
        0.0,
        0.0,
        0.0,
        0.0,
        1.0
      ],
      "name": "Flower"
    },
    {
      "mesh": 0,
      "name": "Flower__0"
    },
    {
      "mesh": 1,
      "name": "Flower__0"
    },
    {
      "mesh": 2,
      "name": "Flower__0"
    }
  ],
  "scene": 0,
  "scenes": [
    {
      "name": "Sketchfab_Scene",
      "nodes": [
        0
      ]
    }
  ]
}
